<svg width="22" height="21" viewBox="0 0 22 21" fill="none" xmlns="http://www.w3.org/2000/svg">
<path d="M12.9815 18.0345L11.4778 18.2902C10.9715 18.3823 10.4545 18.3995 9.94331 18.3414C8.915 18.224 7.9336 17.8464 7.09177 17.2443C6.23389 16.6291 5.50998 15.846 4.964 14.9426C4.85148 14.7584 4.74406 14.5717 4.64176 14.3774C4.34712 13.807 4.11394 13.2069 3.94614 12.5872C3.87198 12.3314 3.8106 12.0476 3.76201 11.7739C3.66601 11.2534 3.61637 10.7253 3.61368 10.196C3.61368 10.1014 3.61368 10.0093 3.61368 9.91212C3.6904 6.27802 5.86933 3.45462 8.72853 2.94569L10.2348 2.67461C7.42168 3.18609 5.27345 5.90207 5.12 9.43644C5.12 9.50549 5.12 9.57454 5.12 9.64615C5.10935 10.1171 5.13501 10.5882 5.19673 11.0553C5.23509 11.3392 5.28368 11.6154 5.34506 11.8864C5.48457 12.5131 5.68943 13.1234 5.95628 13.7073C6.04834 13.9043 6.14808 14.1012 6.25294 14.2904C6.74672 15.2005 7.41195 16.0064 8.21193 16.6637C9.13338 17.4313 10.2584 17.9138 11.4496 18.0524C11.9584 18.1214 12.4745 18.1153 12.9815 18.0345Z" fill="url(#paint0_linear_1_596)"/>
<path d="M18.1013 11.0681C18.1908 6.80743 15.3571 3.04035 11.7742 2.65673C8.19123 2.27312 5.21183 5.41364 5.12488 9.67431C5.03793 13.935 7.869 17.7021 11.4545 18.0857C15.04 18.4693 18.0117 15.3288 18.1013 11.0681Z" fill="url(#paint1_linear_1_596)"/>
<path d="M16.8382 10.9328C16.9098 7.50069 14.6285 4.47014 11.7438 4.16069C8.859 3.85124 6.46013 6.38054 6.38853 9.81004C6.31692 13.2395 8.59559 16.2727 11.4829 16.5821C14.3703 16.8916 16.7666 14.3623 16.8382 10.9328Z" fill="url(#paint2_linear_1_596)"/>
<path style="mix-blend-mode:color-dodge" d="M6.25549 14.321L4.97678 14.963C5.52276 15.8664 6.24667 16.6495 7.10456 17.2646L8.22215 16.7046C7.41838 16.045 6.75045 15.2355 6.25549 14.321ZM5.12256 9.67676C5.12256 9.60516 5.12256 9.53611 5.12256 9.46706L3.61112 10.2343C3.61381 10.7636 3.66344 11.2917 3.75945 11.8122L5.1916 11.0936C5.13205 10.6238 5.10897 10.1501 5.12256 9.67676ZM5.34761 11.9171L3.95125 12.6178C4.11905 13.2375 4.35223 13.8376 4.64687 14.408L5.95883 13.7482C5.69131 13.161 5.48644 12.5472 5.34761 11.9171Z" fill="url(#paint3_linear_1_596)"/>
<defs>
<linearGradient id="paint0_linear_1_596" x1="3.70578" y1="8.38608" x2="14.9756" y2="12.293" gradientUnits="userSpaceOnUse">
<stop stop-color="#FC9B00"/>
<stop offset="0.28" stop-color="#FDAA00"/>
<stop offset="0.68" stop-color="#FEBA00"/>
<stop offset="1" stop-color="#FEBF00"/>
</linearGradient>
<linearGradient id="paint1_linear_1_596" x1="17.9331" y1="8.3055" x2="7.02117" y2="11.8688" gradientUnits="userSpaceOnUse">
<stop stop-color="#FCE600"/>
<stop offset="0.46" stop-color="#FDDC00"/>
<stop offset="1" stop-color="#FED700"/>
</linearGradient>
<linearGradient id="paint2_linear_1_596" x1="14.1519" y1="16.8555" x2="9.42688" y2="4.75856" gradientUnits="userSpaceOnUse">
<stop stop-color="#FC9B00"/>
<stop offset="0.28" stop-color="#FDAA00"/>
<stop offset="0.68" stop-color="#FEBA00"/>
<stop offset="1" stop-color="#FEBF00"/>
</linearGradient>
<linearGradient id="paint3_linear_1_596" x1="12.8953" y1="26.7106" x2="-6.38258" y2="-8.89949" gradientUnits="userSpaceOnUse">
<stop stop-color="white"/>
<stop offset="0.04" stop-color="#DFDFDF"/>
<stop offset="0.1" stop-color="#B1B1B1"/>
<stop offset="0.17" stop-color="#878787"/>
<stop offset="0.24" stop-color="#626262"/>
<stop offset="0.32" stop-color="#444444"/>
<stop offset="0.4" stop-color="#2B2B2B"/>
<stop offset="0.49" stop-color="#181818"/>
<stop offset="0.6" stop-color="#0A0A0A"/>
<stop offset="0.74" stop-color="#020202"/>
<stop offset="1"/>
</linearGradient>
</defs>
</svg>
