<svg width="24" height="24" viewBox="0 0 24 24" fill="none" xmlns="http://www.w3.org/2000/svg">
<g clip-path="url(#clip0_1_778)">
<path d="M23.8455 13.5C24.033 14.8005 24.156 16.5795 23.5725 17.2605C22.608 18.387 16.5015 18.387 16.5015 16.134C16.5015 15 17.5065 14.256 16.542 13.1295C15.594 12.0225 13.893 12.0045 12.0015 12.003C10.11 12.0015 8.41051 12.021 7.46101 13.1295C6.49651 14.256 7.50151 15 7.50151 16.134C7.50151 18.3855 1.39501 18.3855 0.430515 17.2605C-0.152985 16.5795 -0.0299851 14.8005 0.157515 13.5C0.301515 12.6315 0.666015 11.6955 1.83451 10.5C3.58651 8.865 6.23701 7.53 11.9085 7.5C11.94 7.5 11.9715 7.5 12.003 7.5C12.0345 7.5 12.0645 7.5 12.0975 7.5C17.769 7.5285 20.4195 8.865 22.1715 10.5C23.3385 11.6955 23.7045 12.6315 23.8485 13.5H23.8455Z" fill="white"/>
</g>
<defs>
<clipPath id="clip0_1_778">
<rect width="24" height="24" fill="white"/>
</clipPath>
</defs>
</svg>
